<svg id="visual" viewBox="0 0 900 360" width="900" height="360" xmlns="http://www.w3.org/2000/svg" xmlns:xlink="http://www.w3.org/1999/xlink" version="1.1"><rect x="0" y="0" width="900" height="360" fill="#001220"></rect><path d="M0 118L21.5 119.8C43 121.7 86 125.3 128.8 124.3C171.7 123.3 214.3 117.7 257.2 112.7C300 107.7 343 103.3 385.8 100.2C428.7 97 471.3 95 514.2 102C557 109 600 125 642.8 132C685.7 139 728.3 137 771.2 132.7C814 128.3 857 121.7 878.5 118.3L900 115L900 0L878.5 0C857 0 814 0 771.2 0C728.3 0 685.7 0 642.8 0C600 0 557 0 514.2 0C471.3 0 428.7 0 385.8 0C343 0 300 0 257.2 0C214.3 0 171.7 0 128.8 0C86 0 43 0 21.5 0L0 0Z" fill="#fa7268"></path><path d="M0 114L21.5 111.2C43 108.3 86 102.7 128.8 103.5C171.7 104.3 214.3 111.7 257.2 109C300 106.3 343 93.7 385.8 87.7C428.7 81.7 471.3 82.3 514.2 85.2C557 88 600 93 642.8 93.8C685.7 94.7 728.3 91.3 771.2 87.2C814 83 857 78 878.5 75.5L900 73L900 0L878.5 0C857 0 814 0 771.2 0C728.3 0 685.7 0 642.8 0C600 0 557 0 514.2 0C471.3 0 428.7 0 385.8 0C343 0 300 0 257.2 0C214.3 0 171.7 0 128.8 0C86 0 43 0 21.5 0L0 0Z" fill="#e25a60"></path><path d="M0 67L21.5 70.7C43 74.3 86 81.7 128.8 84C171.7 86.3 214.3 83.7 257.2 81.2C300 78.7 343 76.3 385.8 77.3C428.7 78.3 471.3 82.7 514.2 86C557 89.3 600 91.7 642.8 91.3C685.7 91 728.3 88 771.2 86C814 84 857 83 878.5 82.5L900 82L900 0L878.5 0C857 0 814 0 771.2 0C728.3 0 685.7 0 642.8 0C600 0 557 0 514.2 0C471.3 0 428.7 0 385.8 0C343 0 300 0 257.2 0C214.3 0 171.7 0 128.8 0C86 0 43 0 21.5 0L0 0Z" fill="#ca4358"></path><path d="M0 63L21.5 59.3C43 55.7 86 48.3 128.8 48.3C171.7 48.3 214.3 55.7 257.2 55.5C300 55.3 343 47.7 385.8 48.8C428.7 50 471.3 60 514.2 64.5C557 69 600 68 642.8 65C685.7 62 728.3 57 771.2 55.3C814 53.7 857 55.3 878.5 56.2L900 57L900 0L878.5 0C857 0 814 0 771.2 0C728.3 0 685.7 0 642.8 0C600 0 557 0 514.2 0C471.3 0 428.7 0 385.8 0C343 0 300 0 257.2 0C214.3 0 171.7 0 128.8 0C86 0 43 0 21.5 0L0 0Z" fill="#b12b50"></path><path d="M0 32L21.5 33.7C43 35.3 86 38.7 128.8 37C171.7 35.3 214.3 28.7 257.2 28C300 27.3 343 32.7 385.8 33.2C428.7 33.7 471.3 29.3 514.2 29.3C557 29.3 600 33.7 642.8 32.3C685.7 31 728.3 24 771.2 24.3C814 24.7 857 32.3 878.5 36.2L900 40L900 0L878.5 0C857 0 814 0 771.2 0C728.3 0 685.7 0 642.8 0C600 0 557 0 514.2 0C471.3 0 428.7 0 385.8 0C343 0 300 0 257.2 0C214.3 0 171.7 0 128.8 0C86 0 43 0 21.5 0L0 0Z" fill="#980c47"></path></svg>