<svg id="visual" viewBox="0 0 900 360" width="900" height="360" xmlns="http://www.w3.org/2000/svg" xmlns:xlink="http://www.w3.org/1999/xlink" version="1.1"><rect x="0" y="0" width="900" height="360" fill="#001122"></rect><path d="M0 152L11.5 154.8C23 157.7 46 163.3 69 170.8C92 178.3 115 187.7 138.2 195C161.3 202.3 184.7 207.7 207.8 212.2C231 216.7 254 220.3 277 211.2C300 202 323 180 346 182.3C369 184.7 392 211.3 415.2 222C438.3 232.7 461.7 227.3 484.8 222C508 216.7 531 211.3 554 200.7C577 190 600 174 623 173.2C646 172.3 669 186.7 692.2 194.2C715.3 201.7 738.7 202.3 761.8 207.5C785 212.7 808 222.3 831 226.8C854 231.3 877 230.7 888.5 230.3L900 230L900 0L888.5 0C877 0 854 0 831 0C808 0 785 0 761.8 0C738.7 0 715.3 0 692.2 0C669 0 646 0 623 0C600 0 577 0 554 0C531 0 508 0 484.8 0C461.7 0 438.3 0 415.2 0C392 0 369 0 346 0C323 0 300 0 277 0C254 0 231 0 207.8 0C184.7 0 161.3 0 138.2 0C115 0 92 0 69 0C46 0 23 0 11.5 0L0 0Z" fill="#ff0066"></path><path d="M0 186L11.5 177.7C23 169.3 46 152.7 69 152.3C92 152 115 168 138.2 168.5C161.3 169 184.7 154 207.8 156.8C231 159.7 254 180.3 277 182.8C300 185.3 323 169.7 346 167.8C369 166 392 178 415.2 185.5C438.3 193 461.7 196 484.8 194.8C508 193.7 531 188.3 554 181.2C577 174 600 165 623 168.8C646 172.7 669 189.3 692.2 185.2C715.3 181 738.7 156 761.8 156C785 156 808 181 831 193.5C854 206 877 206 888.5 206L900 206L900 0L888.5 0C877 0 854 0 831 0C808 0 785 0 761.8 0C738.7 0 715.3 0 692.2 0C669 0 646 0 623 0C600 0 577 0 554 0C531 0 508 0 484.8 0C461.7 0 438.3 0 415.2 0C392 0 369 0 346 0C323 0 300 0 277 0C254 0 231 0 207.8 0C184.7 0 161.3 0 138.2 0C115 0 92 0 69 0C46 0 23 0 11.5 0L0 0Z" fill="#f3016e"></path><path d="M0 155L11.5 156C23 157 46 159 69 158.5C92 158 115 155 138.2 147C161.3 139 184.7 126 207.8 129.2C231 132.3 254 151.7 277 155.5C300 159.3 323 147.7 346 139.3C369 131 392 126 415.2 124.2C438.3 122.3 461.7 123.7 484.8 131.2C508 138.7 531 152.3 554 150C577 147.7 600 129.3 623 124.3C646 119.3 669 127.7 692.2 133.3C715.3 139 738.7 142 761.8 143.2C785 144.3 808 143.7 831 147.3C854 151 877 159 888.5 163L900 167L900 0L888.5 0C877 0 854 0 831 0C808 0 785 0 761.8 0C738.7 0 715.3 0 692.2 0C669 0 646 0 623 0C600 0 577 0 554 0C531 0 508 0 484.8 0C461.7 0 438.3 0 415.2 0C392 0 369 0 346 0C323 0 300 0 277 0C254 0 231 0 207.8 0C184.7 0 161.3 0 138.2 0C115 0 92 0 69 0C46 0 23 0 11.5 0L0 0Z" fill="#e60b76"></path><path d="M0 150L11.5 148.8C23 147.7 46 145.3 69 139.3C92 133.3 115 123.7 138.2 115.8C161.3 108 184.7 102 207.8 104.7C231 107.3 254 118.7 277 126.3C300 134 323 138 346 135.3C369 132.7 392 123.3 415.2 114.3C438.3 105.3 461.7 96.7 484.8 96.3C508 96 531 104 554 112.3C577 120.7 600 129.3 623 126.2C646 123 669 108 692.2 105.3C715.3 102.7 738.7 112.3 761.8 117.8C785 123.3 808 124.7 831 123.7C854 122.7 877 119.3 888.5 117.7L900 116L900 0L888.5 0C877 0 854 0 831 0C808 0 785 0 761.8 0C738.7 0 715.3 0 692.2 0C669 0 646 0 623 0C600 0 577 0 554 0C531 0 508 0 484.8 0C461.7 0 438.3 0 415.2 0C392 0 369 0 346 0C323 0 300 0 277 0C254 0 231 0 207.8 0C184.7 0 161.3 0 138.2 0C115 0 92 0 69 0C46 0 23 0 11.5 0L0 0Z" fill="#d7157c"></path><path d="M0 109L11.5 104.3C23 99.7 46 90.3 69 88.5C92 86.7 115 92.3 138.2 99.8C161.3 107.3 184.7 116.7 207.8 115.7C231 114.7 254 103.3 277 102.5C300 101.7 323 111.3 346 111.8C369 112.3 392 103.7 415.2 105.3C438.3 107 461.7 119 484.8 124.7C508 130.3 531 129.7 554 126.7C577 123.7 600 118.3 623 111C646 103.7 669 94.3 692.2 96.5C715.3 98.7 738.7 112.3 761.8 113.8C785 115.3 808 104.7 831 99.8C854 95 877 96 888.5 96.5L900 97L900 0L888.5 0C877 0 854 0 831 0C808 0 785 0 761.8 0C738.7 0 715.3 0 692.2 0C669 0 646 0 623 0C600 0 577 0 554 0C531 0 508 0 484.8 0C461.7 0 438.3 0 415.2 0C392 0 369 0 346 0C323 0 300 0 277 0C254 0 231 0 207.8 0C184.7 0 161.3 0 138.2 0C115 0 92 0 69 0C46 0 23 0 11.5 0L0 0Z" fill="#c81e80"></path><path d="M0 58L11.5 58.3C23 58.7 46 59.3 69 62C92 64.7 115 69.3 138.2 72.7C161.3 76 184.7 78 207.8 75.7C231 73.3 254 66.7 277 66.8C300 67 323 74 346 77.5C369 81 392 81 415.2 75.7C438.3 70.3 461.7 59.7 484.8 62.7C508 65.7 531 82.3 554 90.5C577 98.7 600 98.3 623 91.2C646 84 669 70 692.2 61.3C715.3 52.7 738.7 49.3 761.8 51.7C785 54 808 62 831 67.8C854 73.7 877 77.3 888.5 79.2L900 81L900 0L888.5 0C877 0 854 0 831 0C808 0 785 0 761.8 0C738.7 0 715.3 0 692.2 0C669 0 646 0 623 0C600 0 577 0 554 0C531 0 508 0 484.8 0C461.7 0 438.3 0 415.2 0C392 0 369 0 346 0C323 0 300 0 277 0C254 0 231 0 207.8 0C184.7 0 161.3 0 138.2 0C115 0 92 0 69 0C46 0 23 0 11.5 0L0 0Z" fill="#b92583"></path><path d="M0 53L11.5 51.8C23 50.7 46 48.3 69 50.7C92 53 115 60 138.2 59.8C161.3 59.7 184.7 52.3 207.8 49.7C231 47 254 49 277 46.7C300 44.3 323 37.7 346 38.5C369 39.3 392 47.7 415.2 53.8C438.3 60 461.7 64 484.8 63.2C508 62.3 531 56.7 554 53.5C577 50.3 600 49.7 623 48C646 46.3 669 43.7 692.2 46.7C715.3 49.7 738.7 58.3 761.8 56C785 53.7 808 40.3 831 39.5C854 38.7 877 50.3 888.5 56.2L900 62L900 0L888.5 0C877 0 854 0 831 0C808 0 785 0 761.8 0C738.7 0 715.3 0 692.2 0C669 0 646 0 623 0C600 0 577 0 554 0C531 0 508 0 484.8 0C461.7 0 438.3 0 415.2 0C392 0 369 0 346 0C323 0 300 0 277 0C254 0 231 0 207.8 0C184.7 0 161.3 0 138.2 0C115 0 92 0 69 0C46 0 23 0 11.5 0L0 0Z" fill="#a82b85"></path><path d="M0 17L11.5 20.8C23 24.7 46 32.3 69 35.8C92 39.3 115 38.7 138.2 37.3C161.3 36 184.7 34 207.8 30.3C231 26.7 254 21.3 277 20.3C300 19.3 323 22.7 346 24.3C369 26 392 26 415.2 28.8C438.3 31.7 461.7 37.3 484.8 36.3C508 35.3 531 27.7 554 25.5C577 23.3 600 26.7 623 27.7C646 28.7 669 27.3 692.2 29.2C715.3 31 738.7 36 761.8 39.3C785 42.7 808 44.3 831 39.8C854 35.3 877 24.7 888.5 19.3L900 14L900 0L888.5 0C877 0 854 0 831 0C808 0 785 0 761.8 0C738.7 0 715.3 0 692.2 0C669 0 646 0 623 0C600 0 577 0 554 0C531 0 508 0 484.8 0C461.7 0 438.3 0 415.2 0C392 0 369 0 346 0C323 0 300 0 277 0C254 0 231 0 207.8 0C184.7 0 161.3 0 138.2 0C115 0 92 0 69 0C46 0 23 0 11.5 0L0 0Z" fill="#982f85"></path></svg>