<svg id="visual" viewBox="0 0 900 360" width="900" height="360" xmlns="http://www.w3.org/2000/svg" xmlns:xlink="http://www.w3.org/1999/xlink" version="1.1"><rect x="0" y="0" width="900" height="360" fill="#982f85"></rect><path d="M0 167L13.7 168.3C27.3 169.7 54.7 172.3 82 175C109.3 177.7 136.7 180.3 163.8 180.8C191 181.3 218 179.7 245.2 181.8C272.3 184 299.7 190 327 192.8C354.3 195.7 381.7 195.3 409 193.3C436.3 191.3 463.7 187.7 491 181.7C518.3 175.7 545.7 167.3 573 165.7C600.3 164 627.7 169 654.8 171.5C682 174 709 174 736.2 176C763.3 178 790.7 182 818 178.2C845.3 174.3 872.7 162.7 886.3 156.8L900 151L900 0L886.3 0C872.7 0 845.3 0 818 0C790.7 0 763.3 0 736.2 0C709 0 682 0 654.8 0C627.7 0 600.3 0 573 0C545.7 0 518.3 0 491 0C463.7 0 436.3 0 409 0C381.7 0 354.3 0 327 0C299.7 0 272.3 0 245.2 0C218 0 191 0 163.8 0C136.7 0 109.3 0 82 0C54.7 0 27.3 0 13.7 0L0 0Z" fill="#982f85"></path><path d="M0 125L13.7 127C27.3 129 54.7 133 82 135.5C109.3 138 136.7 139 163.8 139.5C191 140 218 140 245.2 144.2C272.3 148.3 299.7 156.7 327 157.3C354.3 158 381.7 151 409 146.7C436.3 142.3 463.7 140.7 491 145.2C518.3 149.7 545.7 160.3 573 162.7C600.3 165 627.7 159 654.8 151.3C682 143.7 709 134.3 736.2 130.2C763.3 126 790.7 127 818 130.8C845.3 134.7 872.7 141.3 886.3 144.7L900 148L900 0L886.3 0C872.7 0 845.3 0 818 0C790.7 0 763.3 0 736.2 0C709 0 682 0 654.8 0C627.7 0 600.3 0 573 0C545.7 0 518.3 0 491 0C463.7 0 436.3 0 409 0C381.7 0 354.3 0 327 0C299.7 0 272.3 0 245.2 0C218 0 191 0 163.8 0C136.7 0 109.3 0 82 0C54.7 0 27.3 0 13.7 0L0 0Z" fill="#73337f"></path><path d="M0 107L13.7 110.5C27.3 114 54.7 121 82 123.5C109.3 126 136.7 124 163.8 124.2C191 124.3 218 126.7 245.2 128.2C272.3 129.7 299.7 130.3 327 126.7C354.3 123 381.7 115 409 111.8C436.3 108.7 463.7 110.3 491 113.3C518.3 116.3 545.7 120.7 573 121.2C600.3 121.7 627.7 118.3 654.8 119.2C682 120 709 125 736.2 122.7C763.3 120.3 790.7 110.7 818 109.7C845.3 108.7 872.7 116.3 886.3 120.2L900 124L900 0L886.3 0C872.7 0 845.3 0 818 0C790.7 0 763.3 0 736.2 0C709 0 682 0 654.8 0C627.7 0 600.3 0 573 0C545.7 0 518.3 0 491 0C463.7 0 436.3 0 409 0C381.7 0 354.3 0 327 0C299.7 0 272.3 0 245.2 0C218 0 191 0 163.8 0C136.7 0 109.3 0 82 0C54.7 0 27.3 0 13.7 0L0 0Z" fill="#503273"></path><path d="M0 116L13.7 115.7C27.3 115.3 54.7 114.7 82 110C109.3 105.3 136.7 96.7 163.8 92.2C191 87.7 218 87.3 245.2 86.8C272.3 86.3 299.7 85.7 327 89.7C354.3 93.7 381.7 102.3 409 107.7C436.3 113 463.7 115 491 112C518.3 109 545.7 101 573 98.8C600.3 96.7 627.7 100.3 654.8 101.7C682 103 709 102 736.2 104.2C763.3 106.3 790.7 111.7 818 111.7C845.3 111.7 872.7 106.3 886.3 103.7L900 101L900 0L886.3 0C872.7 0 845.3 0 818 0C790.7 0 763.3 0 736.2 0C709 0 682 0 654.8 0C627.7 0 600.3 0 573 0C545.7 0 518.3 0 491 0C463.7 0 436.3 0 409 0C381.7 0 354.3 0 327 0C299.7 0 272.3 0 245.2 0C218 0 191 0 163.8 0C136.7 0 109.3 0 82 0C54.7 0 27.3 0 13.7 0L0 0Z" fill="#302e62"></path><path d="M0 77L13.7 75.2C27.3 73.3 54.7 69.7 82 67.8C109.3 66 136.7 66 163.8 65.7C191 65.3 218 64.7 245.2 67.2C272.3 69.7 299.7 75.3 327 78.5C354.3 81.7 381.7 82.3 409 80.8C436.3 79.3 463.7 75.7 491 76.2C518.3 76.7 545.7 81.3 573 83.2C600.3 85 627.7 84 654.8 82.5C682 81 709 79 736.2 75.5C763.3 72 790.7 67 818 69.7C845.3 72.3 872.7 82.7 886.3 87.8L900 93L900 0L886.3 0C872.7 0 845.3 0 818 0C790.7 0 763.3 0 736.2 0C709 0 682 0 654.8 0C627.7 0 600.3 0 573 0C545.7 0 518.3 0 491 0C463.7 0 436.3 0 409 0C381.7 0 354.3 0 327 0C299.7 0 272.3 0 245.2 0C218 0 191 0 163.8 0C136.7 0 109.3 0 82 0C54.7 0 27.3 0 13.7 0L0 0Z" fill="#16274d"></path><path d="M0 49L13.7 49.5C27.3 50 54.7 51 82 53.7C109.3 56.3 136.7 60.7 163.8 58.2C191 55.7 218 46.3 245.2 44.3C272.3 42.3 299.7 47.7 327 51.2C354.3 54.7 381.7 56.3 409 57.8C436.3 59.3 463.7 60.7 491 57.5C518.3 54.3 545.7 46.7 573 46.8C600.3 47 627.7 55 654.8 58C682 61 709 59 736.2 55.5C763.3 52 790.7 47 818 47.2C845.3 47.3 872.7 52.7 886.3 55.3L900 58L900 0L886.3 0C872.7 0 845.3 0 818 0C790.7 0 763.3 0 736.2 0C709 0 682 0 654.8 0C627.7 0 600.3 0 573 0C545.7 0 518.3 0 491 0C463.7 0 436.3 0 409 0C381.7 0 354.3 0 327 0C299.7 0 272.3 0 245.2 0C218 0 191 0 163.8 0C136.7 0 109.3 0 82 0C54.7 0 27.3 0 13.7 0L0 0Z" fill="#051d37"></path><path d="M0 10L13.7 10.8C27.3 11.7 54.7 13.3 82 13.3C109.3 13.3 136.7 11.7 163.8 15.2C191 18.7 218 27.3 245.2 28.5C272.3 29.7 299.7 23.3 327 19.5C354.3 15.7 381.7 14.3 409 18.2C436.3 22 463.7 31 491 32.2C518.3 33.3 545.7 26.7 573 25.8C600.3 25 627.7 30 654.8 30.5C682 31 709 27 736.2 27.2C763.3 27.3 790.7 31.7 818 34C845.3 36.3 872.7 36.7 886.3 36.8L900 37L900 0L886.3 0C872.7 0 845.3 0 818 0C790.7 0 763.3 0 736.2 0C709 0 682 0 654.8 0C627.7 0 600.3 0 573 0C545.7 0 518.3 0 491 0C463.7 0 436.3 0 409 0C381.7 0 354.3 0 327 0C299.7 0 272.3 0 245.2 0C218 0 191 0 163.8 0C136.7 0 109.3 0 82 0C54.7 0 27.3 0 13.7 0L0 0Z" fill="#001220"></path></svg>